<?xml version="1.0" encoding="UTF-8" standalone="no"?>
<!-- Created with Inkscape (http://www.inkscape.org/) -->

<svg
   width="210mm"
   height="297mm"
   viewBox="0 0 210 297"
   version="1.1"
   id="svg1"
   inkscape:version="1.4.2 (ebf0e940, 2025-05-08)"
   sodipodi:docname="Hands_and_feet.svg"
   xmlns:inkscape="http://www.inkscape.org/namespaces/inkscape"
   xmlns:sodipodi="http://sodipodi.sourceforge.net/DTD/sodipodi-0.dtd"
   xmlns="http://www.w3.org/2000/svg"
   xmlns:svg="http://www.w3.org/2000/svg">
  <sodipodi:namedview
     id="namedview1"
     pagecolor="#ffffff"
     bordercolor="#666666"
     borderopacity="1.0"
     inkscape:showpageshadow="2"
     inkscape:pageopacity="0.0"
     inkscape:pagecheckerboard="0"
     inkscape:deskcolor="#d1d1d1"
     inkscape:document-units="mm"
     inkscape:zoom="1.2711951"
     inkscape:cx="365.40419"
     inkscape:cy="284.37807"
     inkscape:window-width="1920"
     inkscape:window-height="1186"
     inkscape:window-x="1993"
     inkscape:window-y="25"
     inkscape:window-maximized="0"
     inkscape:current-layer="layer1"
     showgrid="false" />
  <defs
     id="defs1" />
  <g
     inkscape:label="Layer 1"
     inkscape:groupmode="layer"
     id="layer1">
    <path
       style="display:inline;fill:#fcecd6;fill-opacity:1;stroke:#000000;stroke-width:0.264583;stroke-linecap:butt;stroke-linejoin:miter;stroke-dasharray:none;stroke-opacity:1"
       d="m 46.022764,24.032417 c 2.60172,0.15611 4.03362,2.01761 4.47495,5.82786 0.39033,3.36988 -1.04068,12.90452 0.52035,13.633 1.56103,0.72848 4.89123,-1.04069 5.93192,-2.08138 1.040683,-1.04068 2.143943,-4.09226 2.601713,-5.09937 0.52035,-1.14475 3.12206,-7.18074 3.53834,-8.6377 0.41628,-1.45696 1.10057,-2.62624 1.87324,-3.95461 0.77266,-1.32837 1.45696,-2.49765 1.76917,-3.53834 0.3122,-1.04069 1.45696,-3.01799 2.39358,-4.26682 0.93662,-1.24882 1.96848,-3.53833 3.42544,-3.01799 2.01807,0.72073 1.87193,3.69397 1.15358,4.89123 -1.24882,2.08137 -1.76917,3.43427 -2.28951,4.68309 -0.45637,1.09529 -1.76917,4.6831 -2.08138,5.82785 -0.3122,1.14476 -2.08137,7.49295 -2.60171,8.42957 -0.52035,0.93662 -0.31221,1.6651 1.04068,1.76917 1.3529,0.10407 4.16275,-6.45226 5.09937,-8.11736 0,0 3.43427,-6.24413 4.05868,-6.97261 0.62442,-0.72848 4.46614,-6.44344 5.71496,-7.17192 0.65443,-0.38175 2.08137,-0.7373 2.80986,-0.21696 0.72848,0.52035 0.83255,2.70579 0.10407,3.74648 -0.72849,1.04068 -4.258,7.18074 -4.98648,8.84584 -0.72848,1.6651 -3.3302,6.55633 -4.05868,8.11736 -0.72848,1.56103 -2.80986,5.41158 -2.70579,5.82785 0.10407,0.41628 0.83255,0.83255 1.6651,0.93662 0.83255,0.10407 2.70579,-2.80986 3.43427,-3.64241 0.72848,-0.83255 2.28951,-3.3302 2.91392,-3.74647 0.62442,-0.41628 2.86646,-3.99068 3.74648,-5.09937 1.24267,-1.56558 2.39358,-4.26682 3.43427,-5.3075 1.04069,-1.04069 2.91392,-1.14476 3.53833,-0.62442 0.62442,0.52035 1.3529,1.24883 0.10407,3.64241 -1.24882,2.39358 -2.80985,5.09937 -3.53833,5.82785 -0.72849,0.72848 -3.3302,5.82785 -4.26682,6.9726 -0.93662,1.14476 -4.56138,6.13124 -4.87359,6.85972 -0.3122,0.72848 0.38981,2.06373 1.32643,1.64745 0.96982,-0.43103 0.5854,0.16721 2.16779,-1.13593 1.76917,-1.45696 4.78717,-3.23496 5.51565,-3.96344 0.72848,-0.72848 2.28951,-2.49765 3.6424,-3.43427 1.3529,-0.93661 2.80986,-2.60171 3.74648,-1.87323 0.93662,0.72848 0.50269,2.48882 -0.64206,3.94579 -0.57238,0.72848 -2.13516,2.33097 -4.36602,4.15879 -1.4687,1.20335 -3.65734,2.93029 -5.04301,4.09623 -1.38568,1.16594 -2.69688,2.60342 -3.0351,3.22783 -0.63476,1.17186 -8.42957,12.59232 -10.71908,14.88183 -2.28952,2.28951 -8.11737,5.20343 -9.15805,5.3075 -1.04069,0.10407 -4.37089,0.41628 -5.72378,-0.20814 -1.352903,-0.62441 -5.411583,-2.91392 -4.370893,-2.39357 1.04069,0.52034 -3.95461,-2.18545 -4.9953,-2.80986 -1.04069,-0.62441 -3.3302,-4.16275 -3.74647,-5.20344 -0.41628,-1.04068 -1.76917,-10.71908 -1.6651,-12.38418 0.10406,-1.6651 1.14475,-9.9906 1.14475,-11.03128 0,-1.04069 -0.62441,-17.32745 1.97731,-17.17135 z"
       id="path1"
       sodipodi:nodetypes="zssssszsssssssscssssssssssssssssssssssssssssssssssz"
       inkscape:export-filename="hand.right.imageset/hand.left.imageset/lefthand.svg"
       inkscape:export-xdpi="96"
       inkscape:export-ydpi="96" />
    <path
       style="display:inline;fill:none;stroke:#000000;stroke-width:0.264583px;stroke-linecap:butt;stroke-linejoin:miter;stroke-opacity:1"
       d="m 67.044647,39.538667 c 0,0 -0.41627,6.03599 2.18544,8.74177 2.60172,2.70579 6.24413,7.28481 9.6784,9.78246"
       id="path2"
       sodipodi:nodetypes="csc" />
    <path
       style="display:inline;fill:none;stroke:#000000;stroke-width:0.264583px;stroke-linecap:butt;stroke-linejoin:miter;stroke-opacity:1"
       d="m 58.094737,41.515967 c 0,0 12.80046,11.96791 12.38418,28.3067"
       id="path3"
       sodipodi:nodetypes="cc" />
    <path
       style="display:inline;fill:none;stroke:#000000;stroke-width:0.264583px;stroke-linecap:butt;stroke-linejoin:miter;stroke-opacity:1"
       d="m 67.773127,61.601237 c 0,0 -6.24412,2.80986 -9.15805,8.6377"
       id="path4" />
    <path
       style="display:inline;fill:none;stroke:#000000;stroke-width:0.264583px;stroke-linecap:butt;stroke-linejoin:miter;stroke-opacity:1"
       d="m 56.221494,45.366507 c 0,0 4.370893,9.99061 0,21.43817"
       id="path5" />
    <path
       style="display:inline;fill:#fcead6;fill-opacity:1;stroke:#000000;stroke-width:0.264583;stroke-linecap:butt;stroke-linejoin:miter;stroke-dasharray:none;stroke-opacity:1"
       d="m 163.7935,26.435883 c -2.60172,0.15611 -4.03362,2.0176 -4.47495,5.82785 -0.39033,3.36989 1.04068,12.90453 -0.52035,13.63301 -1.56103,0.72848 -4.89123,-1.04069 -5.93192,-2.08138 -1.04068,-1.04069 -2.14394,-4.09226 -2.60171,-5.09937 -0.52035,-1.14475 -3.12207,-7.18074 -3.53834,-8.6377 -0.41628,-1.45696 -1.10057,-2.62624 -1.87324,-3.95461 -0.77267,-1.32838 -1.45696,-2.49765 -1.76917,-3.53834 -0.3122,-1.04069 -1.45696,-3.01799 -2.39358,-4.26682 -0.93662,-1.24882 -1.96848,-3.53833 -3.42544,-3.01799 -2.01807,0.72073 -1.87194,3.69397 -1.15358,4.89123 1.24882,2.08137 1.76916,3.43427 2.28951,4.68309 0.45637,1.09529 1.76917,4.6831 2.08138,5.82785 0.3122,1.14476 2.08137,7.49295 2.60171,8.42957 0.52035,0.93662 0.31221,1.6651 -1.04068,1.76917 -1.3529,0.10407 -4.16275,-6.45226 -5.09937,-8.11737 0,0 -3.43427,-6.24412 -4.05868,-6.9726 -0.62442,-0.72848 -4.46614,-6.44344 -5.71496,-7.17192 -0.65443,-0.38175 -2.08138,-0.7373 -2.80986,-0.21696 -0.72848,0.52034 -0.83255,2.70579 -0.10407,3.74647 0.72849,1.04069 4.258,7.18075 4.98648,8.84585 0.72848,1.6651 3.3302,6.55633 4.05868,8.11736 0.72848,1.56103 2.80986,5.41157 2.70579,5.82785 -0.10407,0.41627 -0.83255,0.83255 -1.6651,0.93662 -0.83255,0.10407 -2.70579,-2.80986 -3.43427,-3.64241 -0.72848,-0.83255 -2.28951,-3.3302 -2.91392,-3.74647 -0.62442,-0.41628 -2.86647,-3.99069 -3.74648,-5.09937 -1.24267,-1.56558 -2.39358,-4.26682 -3.43427,-5.30751 -1.04069,-1.04069 -2.91392,-1.14475 -3.53833,-0.62441 -0.62442,0.52034 -1.3529,1.24882 -0.10407,3.64241 1.24882,2.39358 2.80985,5.09936 3.53833,5.82784 0.72849,0.72849 3.3302,5.82785 4.26682,6.97261 0.93662,1.14476 4.56138,6.13123 4.87359,6.85971 0.3122,0.72848 -0.38981,2.06373 -1.32643,1.64746 -0.96982,-0.43104 -0.5854,0.16721 -2.1678,-1.13593 -1.76916,-1.45697 -4.78716,-3.23496 -5.51564,-3.96344 -0.72848,-0.72848 -2.28951,-2.49765 -3.6424,-3.43427 -1.3529,-0.93662 -2.80986,-2.60172 -3.74648,-1.87324 -0.93662,0.72849 -0.50269,2.48883 0.64206,3.94579 0.57238,0.72848 2.13516,2.33097 4.36602,4.15879 1.4687,1.20335 3.65734,2.9303 5.04301,4.09624 1.38568,1.16594 2.69688,2.60341 3.0351,3.22783 0.63476,1.17186 8.42957,12.59231 10.71908,14.88183 2.28952,2.28951 8.11736,5.20343 9.15805,5.3075 1.04069,0.10407 4.37089,0.41628 5.72378,-0.20814 1.3529,-0.62441 5.41158,-2.91392 4.37089,-2.39357 -1.04069,0.52034 3.95461,-2.18545 4.9953,-2.80986 1.04069,-0.62442 3.3302,-4.16275 3.74647,-5.20344 0.41628,-1.04069 1.76917,-10.71908 1.6651,-12.38418 -0.10407,-1.6651 -1.14475,-9.9906 -1.14475,-11.03129 0,-1.04068 0.62441,-17.32744 -1.97731,-17.17134 z"
       id="path1-0"
       sodipodi:nodetypes="zssssszsssssssscssssssssssssssssssssssssssssssssssz"
       inkscape:export-filename="hand.right.imageset/hand.left.imageset/hand.right.imageset/rhand.svg"
       inkscape:export-xdpi="96"
       inkscape:export-ydpi="96" />
    <path
       style="display:inline;fill:none;stroke:#000000;stroke-width:0.264583px;stroke-linecap:butt;stroke-linejoin:miter;stroke-opacity:1"
       d="m 142.77162,41.942133 c 0,0 0.41627,6.03598 -2.18544,8.74177 -2.60172,2.70579 -6.24413,7.28481 -9.6784,9.78246"
       id="path2-7"
       sodipodi:nodetypes="csc" />
    <path
       style="display:inline;fill:none;stroke:#000000;stroke-width:0.264583px;stroke-linecap:butt;stroke-linejoin:miter;stroke-opacity:1"
       d="m 151.72153,43.919433 c 0,0 -12.80046,11.9679 -12.38418,28.3067"
       id="path3-4"
       sodipodi:nodetypes="cc" />
    <path
       style="display:inline;fill:none;stroke:#000000;stroke-width:0.264583px;stroke-linecap:butt;stroke-linejoin:miter;stroke-opacity:1"
       d="m 142.04313,64.004703 c 0,0 6.24413,2.80985 9.15805,8.6377"
       id="path4-8" />
    <path
       style="display:inline;fill:none;stroke:#000000;stroke-width:0.264583px;stroke-linecap:butt;stroke-linejoin:miter;stroke-opacity:1"
       d="m 153.59477,47.769973 c 0,0 -4.37089,9.9906 0,21.43816"
       id="path5-5" />
    <path
       style="fill:#ffffff;stroke:#000000;stroke-width:0.264583px;stroke-linecap:butt;stroke-linejoin:miter;stroke-opacity:1;fill-opacity:1"
       d="m 53.79332,151.40739 c 2.1434,-1.26761 4.67234,-2.65323 6.503,-3.17628 2.91393,-0.83255 14.36149,-2.39358 20.70968,-2.28951 1.4205,0.0233 2.71594,-0.016 3.90614,-0.1119 l -1.82483,-14.35325 c -2.90026,-0.44801 -6.54219,-1.29296 -11.55157,-3.12247 -11.9679,-4.37089 -16.85913,-5.82785 -19.56492,-10.09467 -2.70578,-4.26682 -5.51564,-11.86384 -5.51564,-11.86384 l -20.501538,9.26212 c 0,0 5.723778,7.38888 7.284808,12.59232 1.20906,4.03018 1.64248,9.24651 1.83677,14.10171 z"
       id="path7"
       sodipodi:nodetypes="cssccssccscc"
       inkscape:export-filename="foot.left.imageset/lfoot.svg"
       inkscape:export-xdpi="96"
       inkscape:export-ydpi="96" />
    <path
       style="fill:#ff0013;fill-opacity:0.622642;stroke:#000000;stroke-width:0.264583px;stroke-linecap:butt;stroke-linejoin:miter;stroke-opacity:1"
       d="m 27.514673,117.84303 19.773057,-9.36618 0.83255,1.9773 -19.460852,9.15805 z"
       id="path10"
       sodipodi:nodetypes="ccccc" />
    <path
       style="fill:#ff0013;fill-opacity:0.622642;stroke:#000000;stroke-width:0.264583px;stroke-linecap:butt;stroke-linejoin:miter;stroke-opacity:1"
       d="m 29.694222,121.17423 19.252718,-8.79381 0.72848,1.8212 -18.83644,8.84584 z"
       id="path10-1"
       sodipodi:nodetypes="ccccc" />
    <path
       style="fill:#e9dfe0;fill-opacity:1;stroke:#000000;stroke-width:0.264583px;stroke-linecap:butt;stroke-linejoin:miter;stroke-opacity:1"
       d="m 44.36935,142.84159 c 3.22613,1.87323 7.49295,5.93193 9.40662,8.59055 -1.22788,0.70293 -2.36119,1.41168 -3.13495,1.87594 -2.08137,1.24883 -5.41157,1.6651 -8.22143,1.35289 -2.80985,-0.31221 -7.07667,-2.39358 -7.18074,-8.22143 -0.0235,-1.31407 -0.0575,-2.69689 -0.17488,-4.08829 0,0 6.07925,-1.3829 9.30538,0.49034 z"
       id="path8-5"
       sodipodi:nodetypes="scssscs" />
    <path
       d="m 94.0561,143.05414 c 3.12207,-1.87324 4.370889,-2.70579 4.266822,-5.09937 -0.10407,-2.39358 -1.144752,-4.16275 -6.035982,-5.30751 -2.84392,-0.66559 -5.17087,-0.54848 -9.27765,-1.19703 0,0 -0.8065,6.73824 1.84903,14.4094 4.18263,-0.36275 6.77433,-1.35142 9.19778,-2.80549 z"
       style="fill:#e9dfe0;fill-opacity:1;stroke:#000000;stroke-width:0.264583px;stroke-linecap:butt;stroke-linejoin:miter;stroke-opacity:1"
       id="path1-3"
       sodipodi:nodetypes="sssccs" />
    <path
       style="fill:#ffffff;fill-opacity:1;stroke:#000000;stroke-width:0.264583px;stroke-linecap:butt;stroke-linejoin:miter;stroke-opacity:1"
       d="m 157.04414,150.20071 c -2.1434,-1.26761 -4.67235,-2.65323 -6.50301,-3.17628 -2.91392,-0.83255 -14.36149,-2.39358 -20.70968,-2.28951 -1.4205,0.0233 -2.71594,-0.016 -3.90614,-0.11189 l 1.82483,-14.35326 c 2.90026,-0.44801 6.54219,-1.29296 11.55157,-3.12247 11.9679,-4.37088 16.85913,-5.82785 19.56492,-10.09467 2.70579,-4.26682 5.51564,-11.86383 5.51564,-11.86383 l 20.50154,9.26212 c 0,0 -5.72378,7.38888 -7.28481,12.59231 -1.20905,4.03018 -1.64248,9.24652 -1.83676,14.10172 z"
       id="path7-3"
       sodipodi:nodetypes="cssccssccscc"
       inkscape:export-filename="foot.right.imageset/rfoot.svg"
       inkscape:export-xdpi="96"
       inkscape:export-ydpi="96" />
    <path
       style="fill:#ff0013;fill-opacity:0.622642;stroke:#000000;stroke-width:0.264583px;stroke-linecap:butt;stroke-linejoin:miter;stroke-opacity:1"
       d="m 183.32278,116.63636 -19.77306,-9.36619 -0.83255,1.97731 19.46086,9.15805 z"
       id="path10-0"
       sodipodi:nodetypes="ccccc" />
    <path
       style="fill:#ff0013;fill-opacity:0.622642;stroke:#000000;stroke-width:0.264583px;stroke-linecap:butt;stroke-linejoin:miter;stroke-opacity:1"
       d="m 181.14323,119.96755 -19.25271,-8.79381 -0.72848,1.8212 18.83644,8.84585 z"
       id="path10-1-0"
       sodipodi:nodetypes="ccccc" />
    <path
       style="fill:#e9dfe0;fill-opacity:1;stroke:#000000;stroke-width:0.264583px;stroke-linecap:butt;stroke-linejoin:miter;stroke-opacity:1"
       d="m 166.4681,141.63492 c -3.22613,1.87322 -7.49295,5.93192 -9.40662,8.59054 1.22788,0.70293 2.3612,1.41168 3.13495,1.87594 2.08137,1.24883 5.41158,1.6651 8.22143,1.35289 2.80986,-0.31221 7.07667,-2.39358 7.18074,-8.22143 0.0235,-1.31406 0.0575,-2.69688 0.17488,-4.08829 0,0 -6.07925,-1.3829 -9.30538,0.49035 z"
       id="path8-5-3"
       sodipodi:nodetypes="scssscs" />
    <path
       d="m 116.78135,141.84746 c -3.12207,-1.87324 -4.37089,-2.70579 -4.26682,-5.09936 0.10407,-2.39359 1.14475,-4.16276 6.03598,-5.30751 2.84392,-0.6656 5.17087,-0.54848 9.27765,-1.19704 0,0 0.8065,6.73825 -1.84903,14.40941 -4.18263,-0.36275 -6.77433,-1.35143 -9.19778,-2.8055 z"
       style="fill:#e9dfe0;fill-opacity:1;stroke:#000000;stroke-width:0.264583px;stroke-linecap:butt;stroke-linejoin:miter;stroke-opacity:1"
       id="path1-3-8"
       sodipodi:nodetypes="sssccs" />
  </g>
</svg>
