<?xml version="1.0" encoding="UTF-8" standalone="no"?>
<!-- Created with Inkscape (http://www.inkscape.org/) -->

<svg
   width="54.244881mm"
   height="62.846783mm"
   viewBox="0 0 54.244881 62.846783"
   version="1.1"
   id="svg1"
   xmlns="http://www.w3.org/2000/svg"
   xmlns:svg="http://www.w3.org/2000/svg">
  <defs
     id="defs1" />
  <g
     id="layer1"
     transform="translate(-42.762473,-12.690332)">
    <path
       style="display:inline;fill:#fcecd6;fill-opacity:1;stroke:#000000;stroke-width:0.264583;stroke-linecap:butt;stroke-linejoin:miter;stroke-dasharray:none;stroke-opacity:1"
       d="m 46.022764,24.032417 c 2.60172,0.15611 4.03362,2.01761 4.47495,5.82786 0.39033,3.36988 -1.04068,12.90452 0.52035,13.633 1.56103,0.72848 4.89123,-1.04069 5.93192,-2.08138 1.040683,-1.04068 2.143943,-4.09226 2.601713,-5.09937 0.52035,-1.14475 3.12206,-7.18074 3.53834,-8.6377 0.41628,-1.45696 1.10057,-2.62624 1.87324,-3.95461 0.77266,-1.32837 1.45696,-2.49765 1.76917,-3.53834 0.3122,-1.04069 1.45696,-3.01799 2.39358,-4.26682 0.93662,-1.24882 1.96848,-3.53833 3.42544,-3.01799 2.01807,0.72073 1.87193,3.69397 1.15358,4.89123 -1.24882,2.08137 -1.76917,3.43427 -2.28951,4.68309 -0.45637,1.09529 -1.76917,4.6831 -2.08138,5.82785 -0.3122,1.14476 -2.08137,7.49295 -2.60171,8.42957 -0.52035,0.93662 -0.31221,1.6651 1.04068,1.76917 1.3529,0.10407 4.16275,-6.45226 5.09937,-8.11736 0,0 3.43427,-6.24413 4.05868,-6.97261 0.62442,-0.72848 4.46614,-6.44344 5.71496,-7.17192 0.65443,-0.38175 2.08137,-0.7373 2.80986,-0.21696 0.72848,0.52035 0.83255,2.70579 0.10407,3.74648 -0.72849,1.04068 -4.258,7.18074 -4.98648,8.84584 -0.72848,1.6651 -3.3302,6.55633 -4.05868,8.11736 -0.72848,1.56103 -2.80986,5.41158 -2.70579,5.82785 0.10407,0.41628 0.83255,0.83255 1.6651,0.93662 0.83255,0.10407 2.70579,-2.80986 3.43427,-3.64241 0.72848,-0.83255 2.28951,-3.3302 2.91392,-3.74647 0.62442,-0.41628 2.86646,-3.99068 3.74648,-5.09937 1.24267,-1.56558 2.39358,-4.26682 3.43427,-5.3075 1.04069,-1.04069 2.91392,-1.14476 3.53833,-0.62442 0.62442,0.52035 1.3529,1.24883 0.10407,3.64241 -1.24882,2.39358 -2.80985,5.09937 -3.53833,5.82785 -0.72849,0.72848 -3.3302,5.82785 -4.26682,6.9726 -0.93662,1.14476 -4.56138,6.13124 -4.87359,6.85972 -0.3122,0.72848 0.38981,2.06373 1.32643,1.64745 0.96982,-0.43103 0.5854,0.16721 2.16779,-1.13593 1.76917,-1.45696 4.78717,-3.23496 5.51565,-3.96344 0.72848,-0.72848 2.28951,-2.49765 3.6424,-3.43427 1.3529,-0.93661 2.80986,-2.60171 3.74648,-1.87323 0.93662,0.72848 0.50269,2.48882 -0.64206,3.94579 -0.57238,0.72848 -2.13516,2.33097 -4.36602,4.15879 -1.4687,1.20335 -3.65734,2.93029 -5.04301,4.09623 -1.38568,1.16594 -2.69688,2.60342 -3.0351,3.22783 -0.63476,1.17186 -8.42957,12.59232 -10.71908,14.88183 -2.28952,2.28951 -8.11737,5.20343 -9.15805,5.3075 -1.04069,0.10407 -4.37089,0.41628 -5.72378,-0.20814 -1.352903,-0.62441 -5.411583,-2.91392 -4.370893,-2.39357 1.04069,0.52034 -3.95461,-2.18545 -4.9953,-2.80986 -1.04069,-0.62441 -3.3302,-4.16275 -3.74647,-5.20344 -0.41628,-1.04068 -1.76917,-10.71908 -1.6651,-12.38418 0.10406,-1.6651 1.14475,-9.9906 1.14475,-11.03128 0,-1.04069 -0.62441,-17.32745 1.97731,-17.17135 z"
       id="path1" />
    <path
       style="display:inline;fill:none;stroke:#000000;stroke-width:0.264583px;stroke-linecap:butt;stroke-linejoin:miter;stroke-opacity:1"
       d="m 67.044647,39.538667 c 0,0 -0.41627,6.03599 2.18544,8.74177 2.60172,2.70579 6.24413,7.28481 9.6784,9.78246"
       id="path2" />
    <path
       style="display:inline;fill:none;stroke:#000000;stroke-width:0.264583px;stroke-linecap:butt;stroke-linejoin:miter;stroke-opacity:1"
       d="m 58.094737,41.515967 c 0,0 12.80046,11.96791 12.38418,28.3067"
       id="path3" />
    <path
       style="display:inline;fill:none;stroke:#000000;stroke-width:0.264583px;stroke-linecap:butt;stroke-linejoin:miter;stroke-opacity:1"
       d="m 67.773127,61.601237 c 0,0 -6.24412,2.80986 -9.15805,8.6377"
       id="path4" />
    <path
       style="display:inline;fill:none;stroke:#000000;stroke-width:0.264583px;stroke-linecap:butt;stroke-linejoin:miter;stroke-opacity:1"
       d="m 56.221494,45.366507 c 0,0 4.370893,9.99061 0,21.43817"
       id="path5" />
  </g>
</svg>
